<svg width="24" height="24" viewBox="0 0 24 24" fill="none" xmlns="http://www.w3.org/2000/svg">
<path d="M6.5 3C5.75 3 5.146 3.41667 4.688 4.25C4.23 5.08333 4.00067 6 4 7C4 8.05 4.146 8.97933 4.438 9.788C4.73 10.5967 5.00067 11.2007 5.25 11.6L8 11.05C8.21667 10.5167 8.43767 9.90833 8.663 9.225C8.88833 8.54167 9.00067 7.8 9 7C9 6 8.771 5.08333 8.313 4.25C7.855 3.41667 7.25067 3 6.5 3ZM7.875 16C8.19167 16 8.45833 15.8833 8.675 15.65C8.89167 15.4167 9 15.0917 9 14.675C9 14.3917 8.93333 14.1 8.8 13.8C8.66667 13.5 8.53333 13.2333 8.4 13L6 13.5C6 14.1667 6.146 14.75 6.438 15.25C6.73 15.75 7.209 16 7.875 16ZM17.5 8C16.75 8 16.146 8.41667 15.688 9.25C15.23 10.0833 15.0007 11 15 12C15 12.8 15.1127 13.5377 15.338 14.213C15.5633 14.8883 15.784 15.5007 16 16.05L18.75 16.6C19 16.2 19.271 15.6 19.563 14.8C19.855 14 20.0007 13.0667 20 12C20 11 19.771 10.0833 19.313 9.25C18.855 8.41667 18.2507 8 17.5 8ZM16.125 21C16.7917 21 17.271 20.75 17.563 20.25C17.855 19.75 18.0007 19.1667 18 18.5L15.6 18C15.4667 18.2333 15.3333 18.5 15.2 18.8C15.0667 19.1 15 19.3917 15 19.675C15 20.0083 15.1043 20.3127 15.313 20.588C15.5217 20.8633 15.7923 21.0007 16.125 21ZM7.875 18C6.59167 18 5.61667 17.525 4.95 16.575C4.28333 15.625 3.96667 14.5583 4 13.375L3.55 12.7C3.36667 12.4167 3.06234 11.775 2.637 10.775C2.21167 9.775 1.99933 8.51667 2 7C2 5.28333 2.425 3.854 3.275 2.712C4.125 1.57 5.2 0.999334 6.5 1C7.91667 1 9.021 1.62933 9.813 2.888C10.605 4.14667 11.0007 5.51733 11 7C11 7.96667 10.8667 8.85833 10.6 9.675C10.3333 10.4917 10.1 11.15 9.9 11.65L10.1 11.975C10.2333 12.2083 10.4167 12.5793 10.65 13.088C10.8833 13.5967 11 14.1257 11 14.675C11 15.625 10.704 16.4167 10.112 17.05C9.52 17.6833 8.77367 18 7.875 18ZM16.126 23C15.226 23 14.48 22.6833 13.888 22.05C13.296 21.4167 13 20.625 13 19.675C13 19.125 13.1167 18.5957 13.35 18.087C13.5833 17.5783 13.7667 17.2077 13.9 16.975L14.1 16.65C13.9 16.15 13.6667 15.4917 13.4 14.675C13.1333 13.8583 13 12.9667 13 12C13 10.5167 13.396 9.146 14.188 7.888C14.98 6.63 16.084 6.00067 17.5 6C18.8 6 19.875 6.571 20.725 7.713C21.575 8.855 22 10.284 22 12C22 13.5167 21.7873 14.771 21.362 15.763C20.9367 16.755 20.6327 17.3923 20.45 17.675L20 18.375C20.0167 19.5583 19.696 20.625 19.038 21.575C18.38 22.525 17.41 23 16.126 23Z" fill="#EAEAEA"/>
</svg>
