<svg width="390" height="160" viewBox="0 0 390 160" fill="none" xmlns="http://www.w3.org/2000/svg">
<rect width="390" height="160" rx="12" fill="url(#paint0_linear_831_759)"/>
<path d="M106.118 71.6665H96.8676L98.5343 63.6165C98.5752 63.3793 98.5643 63.1361 98.5023 62.9035C98.4402 62.6709 98.3286 62.4545 98.175 62.2692C98.0213 62.0839 97.8294 61.9341 97.6123 61.8301C97.3953 61.726 97.1583 61.6702 96.9176 61.6665H93.5843C93.199 61.6571 92.8224 61.7815 92.5185 62.0185C92.2146 62.2555 92.0023 62.5905 91.9176 62.9665L90.2176 71.6665H81.2176L82.8843 63.6165C82.9246 63.3847 82.9154 63.1469 82.8573 62.9189C82.7992 62.6909 82.6934 62.4778 82.547 62.2936C82.4006 62.1094 82.2168 61.9582 82.0078 61.8502C81.7988 61.7421 81.5692 61.6795 81.3343 61.6665H78.0009C77.6157 61.6571 77.239 61.7815 76.9352 62.0185C76.6313 62.2555 76.4189 62.5905 76.3343 62.9665L74.6676 71.6665H64.6676C64.2777 71.6586 63.8974 71.7878 63.5928 72.0314C63.2883 72.275 63.0788 72.6177 63.0009 72.9998L62.3176 76.3332C62.2675 76.5781 62.2732 76.8312 62.3343 77.0737C62.3953 77.3161 62.5101 77.5418 62.6702 77.7338C62.8302 77.9259 63.0314 78.0795 63.2589 78.1832C63.4864 78.287 63.7343 78.3382 63.9843 78.3332H73.2343L70.5009 91.6665H60.5009C60.111 91.6587 59.7307 91.7878 59.4262 92.0314C59.1216 92.275 58.9122 92.6177 58.8343 92.9998L58.1509 96.3332C58.1009 96.5781 58.1066 96.8312 58.1676 97.0737C58.2286 97.3161 58.3434 97.5418 58.5035 97.7338C58.6635 97.9259 58.8648 98.0795 59.0922 98.1833C59.3197 98.287 59.5676 98.3382 59.8176 98.3332H69.1343L67.4676 106.383C67.4259 106.625 67.438 106.872 67.5029 107.108C67.5678 107.344 67.6839 107.563 67.843 107.75C68.0021 107.936 68.2003 108.085 68.4235 108.185C68.6467 108.286 68.8894 108.337 69.1343 108.333H72.4676C72.8386 108.324 73.1958 108.191 73.4826 107.955C73.7694 107.72 73.9694 107.395 74.0509 107.033L75.7843 98.3332H84.7843L83.1176 106.383C83.0772 106.615 83.0864 106.853 83.1446 107.081C83.2027 107.309 83.3084 107.522 83.4549 107.706C83.6013 107.89 83.785 108.041 83.9941 108.15C84.2031 108.258 84.4326 108.32 84.6676 108.333H88.0009C88.3862 108.343 88.7628 108.218 89.0667 107.981C89.3706 107.744 89.5829 107.409 89.6676 107.033L91.4176 98.3332H101.418C101.808 98.341 102.188 98.2119 102.492 97.9683C102.797 97.7247 103.006 97.382 103.084 96.9998L103.751 93.6665C103.801 93.4216 103.795 93.1685 103.734 92.926C103.673 92.6836 103.558 92.4579 103.398 92.2659C103.238 92.0738 103.037 91.9202 102.81 91.8164C102.582 91.7127 102.334 91.6615 102.084 91.6665H92.7843L95.5009 78.3332H105.501C105.891 78.341 106.271 78.2119 106.576 77.9683C106.88 77.7247 107.09 77.382 107.168 76.9998L107.851 73.6665C107.903 73.4158 107.896 73.1566 107.831 72.909C107.766 72.6614 107.646 72.432 107.478 72.2386C107.31 72.0452 107.101 71.893 106.865 71.7938C106.629 71.6945 106.373 71.651 106.118 71.6665ZM86.1176 91.6665H77.1176L79.8509 78.3332H88.8509L86.1176 91.6665Z" fill="white"/>
<circle cx="84" cy="85" r="42.5" stroke="white" stroke-width="5"/>
<path d="M184.92 61.08C185.192 60.408 185.448 59.704 185.688 58.968C185.944 58.216 186.168 57.448 186.36 56.664C186.568 55.88 186.744 55.096 186.888 54.312C187.032 53.512 187.136 52.728 187.2 51.96L190.704 52.68C190.64 52.92 190.568 53.192 190.488 53.496C190.408 53.8 190.336 54.096 190.272 54.384C190.208 54.672 190.16 54.904 190.128 55.08C190.048 55.512 189.936 56.024 189.792 56.616C189.648 57.208 189.48 57.832 189.288 58.488C189.112 59.144 188.92 59.808 188.712 60.48C188.504 61.136 188.296 61.744 188.088 62.304C187.8 63.088 187.456 63.896 187.056 64.728C186.672 65.544 186.264 66.336 185.832 67.104C185.4 67.872 184.976 68.56 184.56 69.168L181.2 67.752C181.952 66.76 182.656 65.664 183.312 64.464C183.984 63.264 184.52 62.136 184.92 61.08ZM196.776 60.576C196.552 59.952 196.288 59.28 195.984 58.56C195.696 57.84 195.392 57.12 195.072 56.4C194.752 55.664 194.44 54.976 194.136 54.336C193.832 53.696 193.552 53.144 193.296 52.68L196.488 51.648C196.728 52.112 197.008 52.672 197.328 53.328C197.648 53.984 197.968 54.68 198.288 55.416C198.624 56.152 198.944 56.88 199.248 57.6C199.552 58.304 199.816 58.944 200.04 59.52C200.248 60.064 200.48 60.696 200.736 61.416C200.992 62.12 201.248 62.864 201.504 63.648C201.76 64.416 202 65.168 202.224 65.904C202.464 66.64 202.664 67.304 202.824 67.896L199.272 69.048C199.064 68.104 198.824 67.144 198.552 66.168C198.28 65.192 197.992 64.232 197.688 63.288C197.4 62.344 197.096 61.44 196.776 60.576ZM216.12 54.744C216.232 55 216.376 55.368 216.552 55.848C216.744 56.312 216.944 56.816 217.152 57.36C217.36 57.888 217.544 58.392 217.704 58.872C217.864 59.352 217.992 59.728 218.088 60L215.208 61.008C215.144 60.704 215.032 60.32 214.872 59.856C214.712 59.392 214.536 58.904 214.344 58.392C214.152 57.864 213.96 57.36 213.768 56.88C213.576 56.4 213.408 56 213.264 55.68L216.12 54.744ZM224.976 56.496C224.848 56.88 224.736 57.208 224.64 57.48C224.56 57.752 224.48 58.008 224.4 58.248C224.096 59.464 223.68 60.68 223.152 61.896C222.624 63.096 221.952 64.224 221.136 65.28C220.016 66.72 218.744 67.944 217.32 68.952C215.912 69.944 214.504 70.704 213.096 71.232L210.576 68.664C211.456 68.424 212.384 68.072 213.36 67.608C214.336 67.128 215.28 66.552 216.192 65.88C217.104 65.208 217.888 64.464 218.544 63.648C219.088 62.96 219.568 62.176 219.984 61.296C220.416 60.4 220.768 59.448 221.04 58.44C221.328 57.416 221.52 56.408 221.616 55.416L224.976 56.496ZM210.552 56.016C210.712 56.32 210.888 56.712 211.08 57.192C211.288 57.672 211.496 58.176 211.704 58.704C211.912 59.232 212.112 59.744 212.304 60.24C212.512 60.736 212.672 61.152 212.784 61.488L209.856 62.592C209.76 62.272 209.616 61.856 209.424 61.344C209.248 60.832 209.048 60.296 208.824 59.736C208.6 59.16 208.384 58.632 208.176 58.152C207.984 57.672 207.816 57.304 207.672 57.048L210.552 56.016ZM235.416 49.992C235.8 50.216 236.24 50.48 236.736 50.784C237.232 51.088 237.736 51.4 238.248 51.72C238.776 52.04 239.264 52.352 239.712 52.656C240.176 52.944 240.568 53.2 240.888 53.424L239.088 56.088C238.768 55.848 238.376 55.576 237.912 55.272C237.448 54.968 236.968 54.656 236.472 54.336C235.976 54.016 235.48 53.712 234.984 53.424C234.504 53.12 234.064 52.856 233.664 52.632L235.416 49.992ZM230.952 67.032C231.864 66.872 232.776 66.68 233.688 66.456C234.616 66.216 235.536 65.92 236.448 65.568C237.376 65.216 238.272 64.808 239.136 64.344C240.496 63.576 241.76 62.712 242.928 61.752C244.112 60.792 245.168 59.768 246.096 58.68C247.04 57.592 247.832 56.48 248.472 55.344L250.32 58.608C249.2 60.272 247.816 61.84 246.168 63.312C244.536 64.784 242.736 66.088 240.768 67.224C239.952 67.688 239.056 68.12 238.08 68.52C237.12 68.92 236.168 69.264 235.224 69.552C234.296 69.856 233.472 70.072 232.752 70.2L230.952 67.032ZM231.72 55.464C232.12 55.688 232.568 55.952 233.064 56.256C233.576 56.544 234.088 56.848 234.6 57.168C235.112 57.488 235.592 57.792 236.04 58.08C236.504 58.368 236.888 58.624 237.192 58.848L235.44 61.536C235.088 61.296 234.688 61.032 234.24 60.744C233.792 60.44 233.312 60.128 232.8 59.808C232.304 59.472 231.808 59.16 231.312 58.872C230.832 58.584 230.384 58.336 229.968 58.128L231.72 55.464ZM270.216 57.552C270.152 57.712 270.104 57.888 270.072 58.08C270.04 58.272 270.008 58.432 269.976 58.56C269.928 58.896 269.856 59.36 269.76 59.952C269.68 60.544 269.584 61.2 269.472 61.92C269.376 62.624 269.272 63.336 269.16 64.056C269.048 64.776 268.944 65.432 268.848 66.024C268.768 66.616 268.696 67.088 268.632 67.44H265.344C265.408 67.104 265.48 66.68 265.56 66.168C265.64 65.64 265.728 65.072 265.824 64.464C265.936 63.84 266.032 63.216 266.112 62.592C266.208 61.968 266.288 61.392 266.352 60.864C266.416 60.336 266.456 59.912 266.472 59.592C266.248 59.592 265.904 59.592 265.44 59.592C264.992 59.592 264.48 59.592 263.904 59.592C263.344 59.592 262.784 59.592 262.224 59.592C261.68 59.592 261.208 59.592 260.808 59.592C260.408 59.592 260.136 59.592 259.992 59.592C259.608 59.592 259.192 59.608 258.744 59.64C258.312 59.656 257.928 59.68 257.592 59.712V56.544C257.8 56.576 258.048 56.6 258.336 56.616C258.624 56.632 258.912 56.648 259.2 56.664C259.504 56.68 259.76 56.688 259.968 56.688C260.208 56.688 260.536 56.688 260.952 56.688C261.368 56.688 261.824 56.688 262.32 56.688C262.816 56.688 263.312 56.688 263.808 56.688C264.304 56.688 264.752 56.688 265.152 56.688C265.568 56.688 265.888 56.688 266.112 56.688C266.288 56.688 266.496 56.68 266.736 56.664C266.976 56.648 267.208 56.624 267.432 56.592C267.656 56.544 267.808 56.488 267.888 56.424L270.216 57.552ZM255.384 66.264C255.704 66.296 256.072 66.328 256.488 66.36C256.92 66.376 257.344 66.384 257.76 66.384C258 66.384 258.44 66.384 259.08 66.384C259.736 66.384 260.504 66.384 261.384 66.384C262.28 66.384 263.2 66.384 264.144 66.384C265.104 66.384 266.016 66.384 266.88 66.384C267.76 66.384 268.512 66.384 269.136 66.384C269.76 66.384 270.16 66.384 270.336 66.384C270.64 66.384 271.032 66.376 271.512 66.36C271.992 66.344 272.384 66.32 272.688 66.288V69.384C272.528 69.368 272.304 69.352 272.016 69.336C271.744 69.336 271.456 69.328 271.152 69.312C270.864 69.312 270.608 69.312 270.384 69.312C270.192 69.312 269.776 69.312 269.136 69.312C268.496 69.312 267.736 69.312 266.856 69.312C265.976 69.312 265.048 69.312 264.072 69.312C263.112 69.312 262.184 69.312 261.288 69.312C260.408 69.312 259.648 69.312 259.008 69.312C258.368 69.312 257.952 69.312 257.76 69.312C257.344 69.312 256.96 69.312 256.608 69.312C256.256 69.328 255.848 69.352 255.384 69.384V66.264ZM286.296 57.768C287.032 58.184 287.832 58.68 288.696 59.256C289.576 59.816 290.464 60.4 291.36 61.008C292.256 61.616 293.096 62.208 293.88 62.784C294.68 63.36 295.352 63.872 295.896 64.32L293.616 67.032C293.088 66.552 292.432 66 291.648 65.376C290.88 64.736 290.048 64.088 289.152 63.432C288.256 62.76 287.368 62.12 286.488 61.512C285.624 60.904 284.848 60.384 284.16 59.952L286.296 57.768ZM297.576 53.688C297.432 53.912 297.288 54.176 297.144 54.48C297 54.784 296.88 55.088 296.784 55.392C296.544 56.128 296.216 56.952 295.8 57.864C295.4 58.76 294.92 59.68 294.36 60.624C293.8 61.552 293.16 62.464 292.44 63.36C291.304 64.768 289.936 66.104 288.336 67.368C286.752 68.632 284.808 69.704 282.504 70.584L279.72 68.16C281.4 67.648 282.856 67.04 284.088 66.336C285.32 65.632 286.384 64.88 287.28 64.08C288.192 63.28 288.984 62.48 289.656 61.68C290.2 61.056 290.712 60.36 291.192 59.592C291.688 58.808 292.112 58.032 292.464 57.264C292.832 56.48 293.088 55.784 293.232 55.176H285.12L286.224 52.44H293.04C293.424 52.44 293.8 52.416 294.168 52.368C294.552 52.32 294.872 52.256 295.128 52.176L297.576 53.688ZM289.656 49.992C289.368 50.408 289.08 50.856 288.792 51.336C288.52 51.816 288.312 52.184 288.168 52.44C287.624 53.4 286.936 54.424 286.104 55.512C285.272 56.584 284.336 57.632 283.296 58.656C282.272 59.68 281.184 60.592 280.032 61.392L277.44 59.4C278.848 58.52 280.04 57.6 281.016 56.64C282.008 55.664 282.832 54.728 283.488 53.832C284.144 52.92 284.672 52.112 285.072 51.408C285.264 51.12 285.464 50.736 285.672 50.256C285.896 49.76 286.064 49.312 286.176 48.912L289.656 49.992ZM318.696 49.344C318.904 49.632 319.12 49.976 319.344 50.376C319.584 50.776 319.816 51.176 320.04 51.576C320.264 51.976 320.448 52.328 320.592 52.632L318.672 53.448C318.432 52.952 318.136 52.392 317.784 51.768C317.448 51.128 317.12 50.576 316.8 50.112L318.696 49.344ZM321.528 48.264C321.736 48.552 321.96 48.904 322.2 49.32C322.456 49.72 322.696 50.12 322.92 50.52C323.16 50.904 323.344 51.24 323.472 51.528L321.576 52.344C321.32 51.832 321.016 51.264 320.664 50.64C320.312 50.016 319.968 49.48 319.632 49.032L321.528 48.264ZM320.856 54.624C320.712 54.848 320.568 55.12 320.424 55.44C320.28 55.744 320.16 56.048 320.064 56.352C319.856 57.056 319.56 57.864 319.176 58.776C318.792 59.672 318.328 60.6 317.784 61.56C317.24 62.52 316.6 63.456 315.864 64.368C314.728 65.744 313.392 66.992 311.856 68.112C310.336 69.232 308.448 70.24 306.192 71.136L303.36 68.592C304.992 68.096 306.4 67.544 307.584 66.936C308.768 66.312 309.8 65.64 310.68 64.92C311.56 64.2 312.344 63.44 313.032 62.64C313.576 62.016 314.08 61.312 314.544 60.528C315.024 59.744 315.424 58.96 315.744 58.176C316.08 57.392 316.312 56.704 316.44 56.112H308.352L309.456 53.4C309.664 53.4 310.008 53.4 310.488 53.4C310.968 53.4 311.504 53.4 312.096 53.4C312.688 53.4 313.272 53.4 313.848 53.4C314.44 53.4 314.96 53.4 315.408 53.4C315.856 53.4 316.152 53.4 316.296 53.4C316.68 53.4 317.056 53.376 317.424 53.328C317.808 53.264 318.128 53.192 318.384 53.112L320.856 54.624ZM313.032 50.832C312.744 51.248 312.464 51.696 312.192 52.176C311.92 52.656 311.712 53.024 311.568 53.28C311.024 54.24 310.352 55.24 309.552 56.28C308.752 57.304 307.848 58.304 306.84 59.28C305.848 60.24 304.776 61.12 303.624 61.92L300.936 59.904C301.992 59.264 302.92 58.6 303.72 57.912C304.52 57.224 305.216 56.544 305.808 55.872C306.4 55.184 306.912 54.528 307.344 53.904C307.776 53.264 308.136 52.688 308.424 52.176C308.616 51.888 308.816 51.504 309.024 51.024C309.248 50.528 309.408 50.08 309.504 49.68L313.032 50.832ZM204.027 78.752C203.947 79.184 203.819 79.744 203.643 80.432C203.467 81.12 203.211 81.896 202.875 82.76C202.619 83.352 202.323 83.968 201.987 84.608C201.667 85.232 201.339 85.792 201.003 86.288C201.211 86.192 201.475 86.112 201.795 86.048C202.115 85.968 202.443 85.912 202.779 85.88C203.131 85.832 203.443 85.808 203.715 85.808C204.723 85.808 205.555 86.096 206.211 86.672C206.883 87.248 207.219 88.104 207.219 89.24C207.219 89.56 207.219 89.952 207.219 90.416C207.235 90.88 207.251 91.368 207.267 91.88C207.283 92.376 207.299 92.864 207.315 93.344C207.331 93.824 207.339 94.256 207.339 94.64H204.459C204.491 94.368 204.507 94.048 204.507 93.68C204.523 93.296 204.531 92.896 204.531 92.48C204.547 92.064 204.555 91.664 204.555 91.28C204.571 90.88 204.579 90.52 204.579 90.2C204.579 89.432 204.371 88.904 203.955 88.616C203.555 88.312 203.107 88.16 202.611 88.16C201.939 88.16 201.259 88.328 200.571 88.664C199.899 88.984 199.331 89.368 198.867 89.816C198.515 90.168 198.155 90.56 197.787 90.992C197.435 91.424 197.051 91.912 196.635 92.456L194.067 90.536C195.107 89.576 196.003 88.648 196.755 87.752C197.523 86.856 198.171 85.968 198.699 85.088C199.227 84.208 199.659 83.328 199.995 82.448C200.235 81.808 200.427 81.144 200.571 80.456C200.731 79.752 200.827 79.096 200.859 78.488L204.027 78.752ZM195.003 80.96C195.611 81.056 196.315 81.128 197.115 81.176C197.915 81.224 198.619 81.248 199.227 81.248C200.283 81.248 201.435 81.224 202.683 81.176C203.947 81.128 205.227 81.048 206.523 80.936C207.819 80.808 209.051 80.648 210.219 80.456L210.195 83.24C209.347 83.352 208.427 83.456 207.435 83.552C206.459 83.632 205.459 83.704 204.435 83.768C203.427 83.816 202.459 83.856 201.531 83.888C200.603 83.904 199.779 83.912 199.059 83.912C198.739 83.912 198.339 83.912 197.859 83.912C197.395 83.896 196.915 83.88 196.419 83.864C195.923 83.832 195.451 83.8 195.003 83.768V80.96ZM214.011 87.776C213.755 87.856 213.451 87.96 213.099 88.088C212.763 88.2 212.419 88.32 212.067 88.448C211.731 88.56 211.427 88.672 211.155 88.784C210.387 89.088 209.475 89.456 208.419 89.888C207.379 90.32 206.291 90.824 205.155 91.4C204.435 91.784 203.827 92.16 203.331 92.528C202.835 92.896 202.459 93.272 202.203 93.656C201.947 94.024 201.819 94.432 201.819 94.88C201.819 95.216 201.891 95.496 202.035 95.72C202.179 95.928 202.395 96.096 202.683 96.224C202.971 96.352 203.331 96.44 203.763 96.488C204.195 96.536 204.707 96.56 205.299 96.56C206.323 96.56 207.451 96.504 208.683 96.392C209.915 96.264 211.059 96.096 212.115 95.888L212.019 98.984C211.507 99.048 210.859 99.112 210.075 99.176C209.291 99.256 208.475 99.312 207.627 99.344C206.795 99.376 205.995 99.392 205.227 99.392C203.979 99.392 202.859 99.272 201.867 99.032C200.875 98.792 200.091 98.384 199.515 97.808C198.955 97.216 198.675 96.408 198.675 95.384C198.675 94.552 198.859 93.8 199.227 93.128C199.611 92.456 200.115 91.848 200.739 91.304C201.363 90.76 202.043 90.272 202.779 89.84C203.531 89.392 204.267 88.984 204.987 88.616C205.723 88.232 206.387 87.904 206.979 87.632C207.571 87.36 208.123 87.12 208.635 86.912C209.163 86.688 209.667 86.464 210.147 86.24C210.611 86.032 211.059 85.832 211.491 85.64C211.923 85.432 212.363 85.216 212.811 84.992L214.011 87.776ZM223.011 86.96V95.816H220.203V89.624H217.419V86.96H223.011ZM223.011 94.568C223.507 95.352 224.203 95.928 225.099 96.296C225.995 96.664 227.067 96.872 228.315 96.92C229.019 96.952 229.851 96.976 230.811 96.992C231.787 96.992 232.811 96.984 233.883 96.968C234.955 96.952 236.003 96.92 237.027 96.872C238.067 96.824 238.987 96.768 239.787 96.704C239.691 96.928 239.579 97.216 239.451 97.568C239.323 97.92 239.203 98.28 239.091 98.648C238.995 99.016 238.923 99.344 238.875 99.632C238.155 99.68 237.331 99.712 236.403 99.728C235.475 99.76 234.523 99.776 233.547 99.776C232.571 99.792 231.627 99.792 230.715 99.776C229.803 99.76 228.987 99.736 228.267 99.704C226.795 99.64 225.539 99.408 224.499 99.008C223.459 98.624 222.539 97.968 221.739 97.04C221.211 97.488 220.667 97.952 220.107 98.432C219.563 98.912 218.963 99.408 218.307 99.92L216.891 96.92C217.451 96.584 218.035 96.216 218.643 95.816C219.251 95.416 219.835 95 220.395 94.568H223.011ZM217.443 79.904L219.579 78.176C220.075 78.496 220.579 78.872 221.091 79.304C221.603 79.72 222.083 80.152 222.531 80.6C222.979 81.032 223.339 81.432 223.611 81.8L221.331 83.72C221.091 83.336 220.755 82.92 220.323 82.472C219.907 82.024 219.443 81.576 218.931 81.128C218.419 80.664 217.923 80.256 217.443 79.904ZM226.611 79.976H237.123V86.744H226.611V84.392H234.339V82.304H226.611V79.976ZM229.755 77.576L233.163 77.984C232.875 78.64 232.595 79.264 232.323 79.856C232.051 80.448 231.803 80.96 231.579 81.392L228.867 80.888C229.043 80.408 229.211 79.864 229.371 79.256C229.547 78.632 229.675 78.072 229.755 77.576ZM225.219 79.976H228.003V95.552H225.219V79.976ZM226.827 88.352H238.083V95.552H226.827V93.152H235.251V90.728H226.827V88.352ZM255.075 95.216H261.219V97.976H255.075V95.216ZM241.563 81.92H250.347V84.728H241.563V81.92ZM253.779 80.36H262.515V99.488H259.635V83.144H256.539V99.656H253.779V80.36ZM249.651 81.92H252.435C252.435 81.92 252.435 82.008 252.435 82.184C252.435 82.344 252.435 82.528 252.435 82.736C252.435 82.944 252.427 83.112 252.411 83.24C252.363 85.8 252.307 87.984 252.243 89.792C252.195 91.584 252.131 93.056 252.051 94.208C251.987 95.36 251.891 96.264 251.763 96.92C251.635 97.576 251.475 98.04 251.283 98.312C251.011 98.712 250.731 99 250.443 99.176C250.155 99.352 249.811 99.48 249.411 99.56C249.059 99.64 248.627 99.68 248.115 99.68C247.603 99.696 247.067 99.688 246.507 99.656C246.491 99.24 246.411 98.752 246.267 98.192C246.123 97.648 245.931 97.176 245.691 96.776C246.171 96.808 246.611 96.832 247.011 96.848C247.411 96.864 247.723 96.872 247.947 96.872C248.123 96.872 248.275 96.84 248.403 96.776C248.531 96.712 248.651 96.592 248.763 96.416C248.891 96.24 249.003 95.872 249.099 95.312C249.195 94.752 249.275 93.936 249.339 92.864C249.403 91.792 249.459 90.416 249.507 88.736C249.555 87.04 249.603 84.976 249.651 82.544V81.92ZM244.419 77.96H247.251C247.251 80.328 247.211 82.592 247.131 84.752C247.067 86.896 246.907 88.912 246.651 90.8C246.395 92.688 245.971 94.424 245.379 96.008C244.803 97.576 243.995 98.96 242.955 100.16C242.811 99.92 242.619 99.664 242.379 99.392C242.139 99.12 241.883 98.864 241.611 98.624C241.339 98.384 241.083 98.192 240.843 98.048C241.595 97.2 242.195 96.248 242.643 95.192C243.107 94.12 243.459 92.952 243.699 91.688C243.955 90.424 244.131 89.072 244.227 87.632C244.323 86.176 244.379 84.64 244.395 83.024C244.411 81.392 244.419 79.704 244.419 77.96ZM273.267 78.968C273.203 79.464 273.139 80 273.075 80.576C273.027 81.152 272.987 81.68 272.955 82.16C272.939 82.816 272.907 83.616 272.859 84.56C272.827 85.488 272.795 86.464 272.763 87.488C272.747 88.512 272.723 89.52 272.691 90.512C272.675 91.504 272.667 92.368 272.667 93.104C272.667 93.904 272.811 94.544 273.099 95.024C273.403 95.488 273.803 95.824 274.299 96.032C274.795 96.224 275.355 96.32 275.979 96.32C276.971 96.32 277.875 96.192 278.691 95.936C279.507 95.664 280.251 95.304 280.923 94.856C281.595 94.408 282.195 93.888 282.723 93.296C283.267 92.704 283.755 92.08 284.187 91.424L286.371 94.064C285.987 94.64 285.483 95.248 284.859 95.888C284.235 96.528 283.491 97.128 282.627 97.688C281.779 98.248 280.795 98.704 279.675 99.056C278.555 99.408 277.315 99.584 275.955 99.584C274.643 99.584 273.499 99.376 272.523 98.96C271.563 98.56 270.811 97.936 270.267 97.088C269.739 96.224 269.475 95.112 269.475 93.752C269.475 93.096 269.483 92.352 269.499 91.52C269.515 90.672 269.539 89.792 269.571 88.88C269.603 87.968 269.627 87.08 269.643 86.216C269.659 85.336 269.675 84.544 269.691 83.84C269.707 83.136 269.715 82.576 269.715 82.16C269.715 81.584 269.691 81.024 269.643 80.48C269.595 79.92 269.515 79.4 269.403 78.92L273.267 78.968ZM289.341 81.488C289.821 81.472 290.277 81.456 290.709 81.44C291.141 81.408 291.477 81.384 291.717 81.368C292.213 81.32 292.821 81.264 293.541 81.2C294.261 81.136 295.069 81.064 295.965 80.984C296.877 80.904 297.845 80.824 298.869 80.744C299.893 80.648 300.957 80.552 302.061 80.456C302.893 80.392 303.725 80.336 304.557 80.288C305.389 80.224 306.173 80.176 306.909 80.144C307.661 80.096 308.309 80.064 308.853 80.048L308.877 83.12C308.445 83.12 307.949 83.128 307.389 83.144C306.829 83.16 306.269 83.192 305.709 83.24C305.165 83.272 304.677 83.336 304.245 83.432C303.525 83.624 302.853 83.952 302.229 84.416C301.621 84.864 301.085 85.4 300.621 86.024C300.157 86.648 299.797 87.32 299.541 88.04C299.301 88.744 299.181 89.456 299.181 90.176C299.181 90.96 299.317 91.656 299.589 92.264C299.861 92.856 300.237 93.368 300.717 93.8C301.213 94.216 301.789 94.568 302.445 94.856C303.101 95.128 303.805 95.336 304.557 95.48C305.325 95.624 306.117 95.72 306.933 95.768L305.805 99.056C304.797 98.992 303.813 98.832 302.853 98.576C301.909 98.32 301.021 97.968 300.189 97.52C299.373 97.072 298.653 96.528 298.029 95.888C297.405 95.232 296.917 94.488 296.565 93.656C296.213 92.808 296.037 91.864 296.037 90.824C296.037 89.656 296.221 88.592 296.589 87.632C296.957 86.672 297.413 85.832 297.957 85.112C298.501 84.376 299.045 83.808 299.589 83.408C299.141 83.456 298.597 83.52 297.957 83.6C297.333 83.664 296.653 83.744 295.917 83.84C295.197 83.92 294.461 84.008 293.709 84.104C292.957 84.2 292.229 84.312 291.525 84.44C290.837 84.552 290.213 84.664 289.653 84.776L289.341 81.488Z" fill="white"/>
<path d="M159.926 112.79H161.96V125.336H159.926V112.79ZM153.842 119.846L164.534 115.67L165.362 117.542L154.688 121.754L153.842 119.846ZM156.056 114.716H158.18V126.146C158.18 126.506 158.21 126.776 158.27 126.956C158.342 127.136 158.474 127.256 158.666 127.316C158.87 127.376 159.164 127.406 159.548 127.406C159.656 127.406 159.83 127.406 160.07 127.406C160.31 127.406 160.58 127.406 160.88 127.406C161.192 127.406 161.498 127.406 161.798 127.406C162.11 127.406 162.386 127.406 162.626 127.406C162.878 127.406 163.064 127.406 163.184 127.406C163.544 127.406 163.814 127.34 163.994 127.208C164.174 127.076 164.306 126.836 164.39 126.488C164.474 126.128 164.546 125.606 164.606 124.922C164.846 125.09 165.152 125.252 165.524 125.408C165.908 125.564 166.25 125.678 166.55 125.75C166.454 126.65 166.298 127.364 166.082 127.892C165.878 128.408 165.56 128.78 165.128 129.008C164.708 129.236 164.12 129.35 163.364 129.35C163.244 129.35 163.046 129.35 162.77 129.35C162.494 129.35 162.188 129.35 161.852 129.35C161.516 129.35 161.18 129.35 160.844 129.35C160.508 129.35 160.208 129.35 159.944 129.35C159.68 129.35 159.488 129.35 159.368 129.35C158.504 129.35 157.832 129.254 157.352 129.062C156.872 128.882 156.536 128.558 156.344 128.09C156.152 127.622 156.056 126.974 156.056 126.146V114.716ZM163.814 116.03H163.67L164.048 115.76L164.426 115.49L165.902 116.048L165.83 116.39C165.83 117.434 165.824 118.37 165.812 119.198C165.8 120.014 165.782 120.704 165.758 121.268C165.734 121.82 165.704 122.228 165.668 122.492C165.632 122.948 165.524 123.302 165.344 123.554C165.176 123.806 164.948 123.998 164.66 124.13C164.384 124.25 164.054 124.328 163.67 124.364C163.286 124.388 162.932 124.394 162.608 124.382C162.596 124.082 162.548 123.734 162.464 123.338C162.38 122.942 162.272 122.63 162.14 122.402C162.344 122.414 162.554 122.426 162.77 122.438C162.986 122.438 163.148 122.438 163.256 122.438C163.376 122.438 163.472 122.414 163.544 122.366C163.616 122.306 163.67 122.192 163.706 122.024C163.73 121.88 163.748 121.58 163.76 121.124C163.772 120.668 163.784 120.02 163.796 119.18C163.808 118.34 163.814 117.29 163.814 116.03ZM153.356 112.772L155.354 113.42C154.97 114.428 154.514 115.442 153.986 116.462C153.458 117.482 152.888 118.448 152.276 119.36C151.664 120.26 151.034 121.052 150.386 121.736C150.326 121.568 150.224 121.346 150.08 121.07C149.948 120.794 149.804 120.518 149.648 120.242C149.504 119.954 149.372 119.72 149.252 119.54C149.792 118.988 150.314 118.352 150.818 117.632C151.334 116.912 151.808 116.138 152.24 115.31C152.684 114.482 153.056 113.636 153.356 112.772ZM151.538 117.758L153.644 115.634L153.662 115.652V129.584H151.538V117.758ZM177.638 115.67C177.518 116.582 177.362 117.554 177.17 118.586C176.978 119.618 176.72 120.662 176.396 121.718C176.048 122.93 175.64 123.974 175.172 124.85C174.704 125.726 174.188 126.404 173.624 126.884C173.072 127.352 172.466 127.586 171.806 127.586C171.146 127.586 170.534 127.364 169.97 126.92C169.418 126.464 168.974 125.84 168.638 125.048C168.314 124.256 168.152 123.356 168.152 122.348C168.152 121.304 168.362 120.32 168.782 119.396C169.202 118.472 169.784 117.656 170.528 116.948C171.284 116.228 172.16 115.664 173.156 115.256C174.164 114.848 175.25 114.644 176.414 114.644C177.53 114.644 178.532 114.824 179.42 115.184C180.32 115.544 181.088 116.042 181.724 116.678C182.36 117.314 182.846 118.058 183.182 118.91C183.518 119.762 183.686 120.68 183.686 121.664C183.686 122.924 183.428 124.052 182.912 125.048C182.396 126.044 181.628 126.866 180.608 127.514C179.6 128.162 178.34 128.606 176.828 128.846L175.478 126.704C175.826 126.668 176.132 126.626 176.396 126.578C176.66 126.53 176.912 126.476 177.152 126.416C177.728 126.272 178.262 126.068 178.754 125.804C179.258 125.528 179.696 125.192 180.068 124.796C180.44 124.388 180.728 123.914 180.932 123.374C181.148 122.834 181.256 122.24 181.256 121.592C181.256 120.884 181.148 120.236 180.932 119.648C180.716 119.06 180.398 118.55 179.978 118.118C179.558 117.674 179.048 117.338 178.448 117.11C177.848 116.87 177.158 116.75 176.378 116.75C175.418 116.75 174.572 116.924 173.84 117.272C173.108 117.608 172.49 118.046 171.986 118.586C171.482 119.126 171.098 119.708 170.834 120.332C170.582 120.956 170.456 121.55 170.456 122.114C170.456 122.714 170.528 123.218 170.672 123.626C170.816 124.022 170.99 124.322 171.194 124.526C171.41 124.718 171.638 124.814 171.878 124.814C172.13 124.814 172.376 124.688 172.616 124.436C172.868 124.172 173.114 123.776 173.354 123.248C173.594 122.72 173.834 122.054 174.074 121.25C174.35 120.386 174.584 119.462 174.776 118.478C174.968 117.494 175.106 116.534 175.19 115.598L177.638 115.67ZM199.508 116.318C199.472 116.438 199.436 116.588 199.4 116.768C199.364 116.936 199.34 117.056 199.328 117.128C199.28 117.488 199.214 117.956 199.13 118.532C199.046 119.108 198.95 119.726 198.842 120.386C198.746 121.046 198.644 121.706 198.536 122.366C198.428 123.014 198.332 123.614 198.248 124.166C198.164 124.706 198.092 125.144 198.032 125.48H195.386C195.434 125.204 195.494 124.862 195.566 124.454C195.638 124.034 195.716 123.578 195.8 123.086C195.884 122.594 195.962 122.09 196.034 121.574C196.118 121.058 196.19 120.566 196.25 120.098C196.322 119.618 196.382 119.192 196.43 118.82C196.478 118.448 196.502 118.154 196.502 117.938C196.226 117.938 195.872 117.938 195.44 117.938C195.008 117.938 194.54 117.938 194.036 117.938C193.544 117.938 193.052 117.938 192.56 117.938C192.068 117.938 191.624 117.938 191.228 117.938C190.832 117.938 190.52 117.938 190.292 117.938C189.932 117.938 189.584 117.944 189.248 117.956C188.912 117.968 188.582 117.986 188.258 118.01V115.472C188.558 115.508 188.894 115.544 189.266 115.58C189.638 115.604 189.974 115.616 190.274 115.616C190.466 115.616 190.712 115.616 191.012 115.616C191.312 115.616 191.642 115.616 192.002 115.616C192.374 115.616 192.752 115.616 193.136 115.616C193.52 115.616 193.892 115.616 194.252 115.616C194.624 115.616 194.954 115.616 195.242 115.616C195.542 115.616 195.782 115.616 195.962 115.616C196.118 115.616 196.304 115.604 196.52 115.58C196.748 115.556 196.964 115.526 197.168 115.49C197.372 115.454 197.528 115.418 197.636 115.382L199.508 116.318ZM186.278 124.742C186.566 124.778 186.866 124.814 187.178 124.85C187.49 124.874 187.784 124.886 188.06 124.886H200.066C200.39 124.886 200.69 124.868 200.966 124.832C201.254 124.796 201.512 124.766 201.74 124.742V127.352C201.488 127.316 201.2 127.292 200.876 127.28C200.552 127.268 200.282 127.262 200.066 127.262H188.06C187.784 127.262 187.49 127.268 187.178 127.28C186.878 127.292 186.578 127.316 186.278 127.352V124.742ZM204.656 119.666C204.872 119.678 205.148 119.696 205.484 119.72C205.82 119.732 206.168 119.744 206.528 119.756C206.9 119.768 207.242 119.774 207.554 119.774C207.854 119.774 208.226 119.774 208.67 119.774C209.114 119.774 209.594 119.774 210.11 119.774C210.638 119.774 211.178 119.774 211.73 119.774C212.294 119.774 212.852 119.774 213.404 119.774C213.956 119.774 214.478 119.774 214.97 119.774C215.462 119.774 215.9 119.774 216.284 119.774C216.68 119.774 216.992 119.774 217.22 119.774C217.64 119.774 218.036 119.762 218.408 119.738C218.78 119.702 219.086 119.678 219.326 119.666V122.492C219.122 122.48 218.816 122.462 218.408 122.438C218 122.414 217.604 122.402 217.22 122.402C216.992 122.402 216.68 122.402 216.284 122.402C215.888 122.402 215.444 122.402 214.952 122.402C214.46 122.402 213.938 122.402 213.386 122.402C212.846 122.402 212.294 122.402 211.73 122.402C211.166 122.402 210.62 122.402 210.092 122.402C209.576 122.402 209.096 122.402 208.652 122.402C208.22 122.402 207.854 122.402 207.554 122.402C207.038 122.402 206.51 122.414 205.97 122.438C205.43 122.45 204.992 122.468 204.656 122.492V119.666ZM235.354 113.996C235.474 114.224 235.588 114.488 235.696 114.788C235.816 115.088 235.93 115.382 236.038 115.67C236.146 115.958 236.236 116.222 236.308 116.462L235.066 116.858C234.982 116.606 234.886 116.336 234.778 116.048C234.682 115.76 234.58 115.472 234.472 115.184C234.376 114.896 234.268 114.632 234.148 114.392L235.354 113.996ZM237.208 113.42C237.328 113.66 237.448 113.93 237.568 114.23C237.688 114.518 237.802 114.806 237.91 115.094C238.03 115.382 238.126 115.64 238.198 115.868L236.956 116.264C236.836 115.88 236.692 115.466 236.524 115.022C236.356 114.578 236.176 114.176 235.984 113.816L237.208 113.42ZM233.806 120.314C233.806 121.43 233.722 122.444 233.554 123.356C233.398 124.256 233.122 125.078 232.726 125.822C232.33 126.554 231.778 127.22 231.07 127.82C230.362 128.408 229.468 128.942 228.388 129.422L226.462 127.604C227.326 127.292 228.076 126.95 228.712 126.578C229.348 126.206 229.864 125.75 230.26 125.21C230.668 124.67 230.968 124.016 231.16 123.248C231.364 122.468 231.466 121.52 231.466 120.404V115.616C231.466 115.256 231.454 114.932 231.43 114.644C231.406 114.356 231.382 114.122 231.358 113.942H233.932C233.908 114.122 233.878 114.356 233.842 114.644C233.818 114.932 233.806 115.256 233.806 115.616V120.314ZM227.308 114.104C227.284 114.272 227.26 114.5 227.236 114.788C227.212 115.064 227.2 115.382 227.2 115.742V122.168C227.2 122.432 227.206 122.69 227.218 122.942C227.23 123.182 227.242 123.398 227.254 123.59C227.266 123.782 227.272 123.938 227.272 124.058H224.752C224.776 123.938 224.794 123.788 224.806 123.608C224.818 123.416 224.83 123.194 224.842 122.942C224.854 122.69 224.86 122.432 224.86 122.168V115.724C224.86 115.46 224.848 115.196 224.824 114.932C224.812 114.656 224.788 114.38 224.752 114.104H227.308ZM221.386 117.344C221.494 117.368 221.644 117.392 221.836 117.416C222.028 117.44 222.25 117.464 222.502 117.488C222.754 117.5 223.03 117.506 223.33 117.506H235.138C235.618 117.506 236.008 117.494 236.308 117.47C236.608 117.446 236.878 117.416 237.118 117.38V119.774C236.926 119.762 236.668 119.75 236.344 119.738C236.02 119.726 235.624 119.72 235.156 119.72H223.33C223.03 119.72 222.754 119.726 222.502 119.738C222.262 119.738 222.046 119.744 221.854 119.756C221.674 119.768 221.518 119.78 221.386 119.792V117.344ZM240.304 119.666C240.52 119.678 240.796 119.696 241.132 119.72C241.468 119.732 241.816 119.744 242.176 119.756C242.548 119.768 242.89 119.774 243.202 119.774C243.502 119.774 243.874 119.774 244.318 119.774C244.762 119.774 245.242 119.774 245.758 119.774C246.286 119.774 246.826 119.774 247.378 119.774C247.942 119.774 248.5 119.774 249.052 119.774C249.604 119.774 250.126 119.774 250.618 119.774C251.11 119.774 251.548 119.774 251.932 119.774C252.328 119.774 252.64 119.774 252.868 119.774C253.288 119.774 253.684 119.762 254.056 119.738C254.428 119.702 254.734 119.678 254.974 119.666V122.492C254.77 122.48 254.464 122.462 254.056 122.438C253.648 122.414 253.252 122.402 252.868 122.402C252.64 122.402 252.328 122.402 251.932 122.402C251.536 122.402 251.092 122.402 250.6 122.402C250.108 122.402 249.586 122.402 249.034 122.402C248.494 122.402 247.942 122.402 247.378 122.402C246.814 122.402 246.268 122.402 245.74 122.402C245.224 122.402 244.744 122.402 244.3 122.402C243.868 122.402 243.502 122.402 243.202 122.402C242.686 122.402 242.158 122.414 241.618 122.438C241.078 122.45 240.64 122.468 240.304 122.492V119.666ZM271.642 117.506C271.378 117.674 271.096 117.836 270.796 117.992C270.508 118.148 270.196 118.31 269.86 118.478C269.584 118.622 269.242 118.79 268.834 118.982C268.438 119.174 268.006 119.39 267.538 119.63C267.082 119.858 266.62 120.104 266.152 120.368C265.684 120.62 265.246 120.878 264.838 121.142C264.094 121.634 263.488 122.144 263.02 122.672C262.564 123.2 262.336 123.782 262.336 124.418C262.336 125.054 262.648 125.546 263.272 125.894C263.896 126.23 264.832 126.398 266.08 126.398C266.704 126.398 267.364 126.374 268.06 126.326C268.768 126.266 269.464 126.188 270.148 126.092C270.832 125.984 271.438 125.864 271.966 125.732L271.93 128.324C271.426 128.408 270.874 128.486 270.274 128.558C269.686 128.63 269.044 128.684 268.348 128.72C267.664 128.756 266.932 128.774 266.152 128.774C265.252 128.774 264.418 128.702 263.65 128.558C262.894 128.426 262.228 128.204 261.652 127.892C261.088 127.58 260.644 127.16 260.32 126.632C260.008 126.104 259.852 125.456 259.852 124.688C259.852 123.92 260.02 123.224 260.356 122.6C260.692 121.976 261.148 121.4 261.724 120.872C262.312 120.344 262.954 119.846 263.65 119.378C264.082 119.09 264.538 118.814 265.018 118.55C265.498 118.274 265.966 118.01 266.422 117.758C266.89 117.506 267.322 117.278 267.718 117.074C268.126 116.858 268.462 116.672 268.726 116.516C269.074 116.312 269.38 116.126 269.644 115.958C269.908 115.79 270.16 115.61 270.4 115.418L271.642 117.506ZM262.588 113.654C262.888 114.446 263.2 115.208 263.524 115.94C263.86 116.672 264.19 117.356 264.514 117.992C264.85 118.628 265.156 119.198 265.432 119.702L263.398 120.908C263.074 120.356 262.738 119.738 262.39 119.054C262.042 118.37 261.694 117.65 261.346 116.894C260.998 116.126 260.662 115.352 260.338 114.572L262.588 113.654ZM282.496 125.84H284.638V129.62H282.496V125.84ZM278.716 112.682H280.552V121.934H278.716V112.682ZM281.992 120.854L283.792 121.7C283.288 122.072 282.76 122.426 282.208 122.762C281.668 123.086 281.176 123.362 280.732 123.59L279.382 122.834C279.682 122.654 279.988 122.45 280.3 122.222C280.624 121.994 280.936 121.76 281.236 121.52C281.536 121.28 281.788 121.058 281.992 120.854ZM285.736 121.664L287.5 122.672C286.78 123.104 286.006 123.53 285.178 123.95C284.35 124.37 283.516 124.766 282.676 125.138C281.848 125.498 281.074 125.816 280.354 126.092L279.076 125.156C279.808 124.868 280.582 124.526 281.398 124.13C282.214 123.734 283 123.32 283.756 122.888C284.512 122.456 285.172 122.048 285.736 121.664ZM277.528 123.158L278.932 122.078C279.34 122.258 279.778 122.474 280.246 122.726C280.714 122.978 281.164 123.236 281.596 123.5C282.028 123.764 282.388 124.01 282.676 124.238L281.182 125.426C280.93 125.198 280.594 124.952 280.174 124.688C279.766 124.412 279.328 124.142 278.86 123.878C278.404 123.602 277.96 123.362 277.528 123.158ZM286.06 124.364L287.464 123.302C287.932 123.53 288.424 123.794 288.94 124.094C289.456 124.394 289.948 124.7 290.416 125.012C290.884 125.324 291.268 125.618 291.568 125.894L290.074 127.064C289.81 126.788 289.45 126.494 288.994 126.182C288.55 125.858 288.07 125.534 287.554 125.21C287.05 124.886 286.552 124.604 286.06 124.364ZM285.79 127.496L287.356 126.416C287.812 126.56 288.304 126.74 288.832 126.956C289.372 127.172 289.888 127.394 290.38 127.622C290.884 127.85 291.304 128.066 291.64 128.27L289.984 129.476C289.684 129.284 289.294 129.068 288.814 128.828C288.346 128.588 287.842 128.348 287.302 128.108C286.774 127.88 286.27 127.676 285.79 127.496ZM275.746 124.976C276.574 124.988 277.516 124.994 278.572 124.994C279.64 124.982 280.774 124.976 281.974 124.976C283.186 124.976 284.434 124.976 285.718 124.976C287.002 124.964 288.274 124.946 289.534 124.922L289.462 126.362C287.83 126.41 286.186 126.452 284.53 126.488C282.874 126.524 281.296 126.56 279.796 126.596C278.296 126.62 276.964 126.644 275.8 126.668L275.746 124.976ZM279.562 126.524L281.47 127.28C281.074 127.58 280.612 127.868 280.084 128.144C279.568 128.42 279.034 128.672 278.482 128.9C277.93 129.14 277.402 129.344 276.898 129.512C276.778 129.38 276.628 129.224 276.448 129.044C276.268 128.864 276.076 128.684 275.872 128.504C275.68 128.324 275.512 128.18 275.368 128.072C276.124 127.892 276.886 127.67 277.654 127.406C278.434 127.13 279.07 126.836 279.562 126.524ZM275.692 113.564H283.594V114.734H275.692V113.564ZM285.61 113.204H288.85V114.662H285.61V113.204ZM284.062 117.02H289.696V118.406H284.062V117.02ZM275.548 119.864H283.666V121.07H275.548V119.864ZM277.654 117.758V118.352H281.596V117.758H277.654ZM277.654 116.246V116.822H281.596V116.246H277.654ZM276.034 115.256H283.288V119.342H276.034V115.256ZM284.584 113.204H286.402V114.302C286.402 114.866 286.276 115.43 286.024 115.994C285.784 116.546 285.28 117.026 284.512 117.434C284.44 117.302 284.32 117.14 284.152 116.948C283.996 116.756 283.834 116.57 283.666 116.39C283.498 116.21 283.354 116.078 283.234 115.994C283.834 115.73 284.206 115.454 284.35 115.166C284.506 114.866 284.584 114.56 284.584 114.248V113.204ZM287.932 113.204H289.75V114.59C289.75 114.854 289.762 115.004 289.786 115.04C289.81 115.064 289.834 115.082 289.858 115.094C289.894 115.106 289.93 115.112 289.966 115.112C290.002 115.112 290.044 115.112 290.092 115.112C290.152 115.112 290.206 115.112 290.254 115.112C290.29 115.112 290.326 115.112 290.362 115.112C290.398 115.1 290.428 115.088 290.452 115.076C290.512 115.052 290.56 114.974 290.596 114.842C290.62 114.77 290.632 114.662 290.632 114.518C290.644 114.362 290.656 114.188 290.668 113.996C290.812 114.128 291.01 114.26 291.262 114.392C291.514 114.512 291.748 114.608 291.964 114.68C291.94 114.944 291.904 115.196 291.856 115.436C291.82 115.664 291.778 115.838 291.73 115.958C291.658 116.066 291.568 116.168 291.46 116.264C291.364 116.36 291.256 116.432 291.136 116.48C291.028 116.528 290.89 116.564 290.722 116.588C290.566 116.612 290.422 116.624 290.29 116.624C290.17 116.624 290.032 116.624 289.876 116.624C289.72 116.624 289.588 116.624 289.48 116.624C289.264 116.624 289.048 116.594 288.832 116.534C288.628 116.462 288.46 116.36 288.328 116.228C288.184 116.072 288.082 115.886 288.022 115.67C287.962 115.442 287.932 115.088 287.932 114.608V113.204ZM286.186 118.298C286.666 119.006 287.422 119.558 288.454 119.954C289.498 120.338 290.734 120.584 292.162 120.692C291.97 120.872 291.766 121.118 291.55 121.43C291.334 121.73 291.172 122.006 291.064 122.258C289.492 122.054 288.166 121.664 287.086 121.088C286.006 120.5 285.16 119.702 284.548 118.694L286.186 118.298ZM289.228 117.02H289.606L289.93 116.966L291.028 117.326C290.692 118.274 290.206 119.054 289.57 119.666C288.934 120.278 288.178 120.77 287.302 121.142C286.438 121.502 285.472 121.784 284.404 121.988C284.32 121.76 284.194 121.502 284.026 121.214C283.858 120.926 283.702 120.692 283.558 120.512C284.47 120.392 285.304 120.2 286.06 119.936C286.828 119.66 287.482 119.3 288.022 118.856C288.574 118.412 288.976 117.866 289.228 117.218V117.02ZM300.838 113.906C300.79 114.134 300.736 114.386 300.676 114.662C300.616 114.926 300.562 115.172 300.514 115.4C300.466 115.664 300.406 115.964 300.334 116.3C300.262 116.624 300.19 116.954 300.118 117.29C300.058 117.614 299.992 117.932 299.92 118.244C299.8 118.76 299.65 119.36 299.47 120.044C299.29 120.728 299.08 121.466 298.84 122.258C298.6 123.038 298.33 123.824 298.03 124.616C297.73 125.408 297.412 126.182 297.076 126.938C296.74 127.682 296.38 128.354 295.996 128.954L293.656 128.018C294.076 127.454 294.466 126.824 294.826 126.128C295.198 125.42 295.534 124.7 295.834 123.968C296.134 123.224 296.398 122.492 296.626 121.772C296.866 121.04 297.07 120.362 297.238 119.738C297.418 119.114 297.556 118.58 297.652 118.136C297.82 117.32 297.952 116.534 298.048 115.778C298.144 115.022 298.18 114.308 298.156 113.636L300.838 113.906ZM307.03 115.724C307.318 116.12 307.612 116.606 307.912 117.182C308.224 117.746 308.53 118.346 308.83 118.982C309.13 119.618 309.4 120.23 309.64 120.818C309.88 121.406 310.066 121.916 310.198 122.348L307.912 123.392C307.804 122.888 307.642 122.33 307.426 121.718C307.222 121.106 306.982 120.488 306.706 119.864C306.43 119.228 306.136 118.628 305.824 118.064C305.524 117.5 305.212 117.026 304.888 116.642L307.03 115.724ZM293.53 117.596C293.854 117.62 294.172 117.632 294.484 117.632C294.808 117.62 295.132 117.608 295.456 117.596C295.756 117.584 296.116 117.566 296.536 117.542C296.956 117.506 297.4 117.47 297.868 117.434C298.348 117.398 298.828 117.362 299.308 117.326C299.788 117.278 300.232 117.242 300.64 117.218C301.048 117.194 301.384 117.182 301.648 117.182C302.296 117.182 302.86 117.29 303.34 117.506C303.82 117.71 304.198 118.064 304.474 118.568C304.762 119.072 304.906 119.756 304.906 120.62C304.906 121.328 304.876 122.096 304.816 122.924C304.756 123.752 304.648 124.544 304.492 125.3C304.348 126.056 304.144 126.698 303.88 127.226C303.592 127.85 303.196 128.282 302.692 128.522C302.2 128.762 301.612 128.882 300.928 128.882C300.592 128.882 300.226 128.852 299.83 128.792C299.434 128.744 299.08 128.69 298.768 128.63L298.39 126.254C298.618 126.314 298.87 126.374 299.146 126.434C299.434 126.494 299.704 126.542 299.956 126.578C300.22 126.614 300.43 126.632 300.586 126.632C300.886 126.632 301.15 126.578 301.378 126.47C301.606 126.35 301.792 126.146 301.936 125.858C302.104 125.51 302.242 125.06 302.35 124.508C302.458 123.956 302.536 123.362 302.584 122.726C302.644 122.078 302.674 121.46 302.674 120.872C302.674 120.392 302.602 120.038 302.458 119.81C302.326 119.582 302.128 119.432 301.864 119.36C301.612 119.276 301.3 119.234 300.928 119.234C300.652 119.234 300.28 119.258 299.812 119.306C299.344 119.342 298.84 119.39 298.3 119.45C297.772 119.498 297.28 119.552 296.824 119.612C296.368 119.672 296.014 119.714 295.762 119.738C295.498 119.786 295.162 119.84 294.754 119.9C294.358 119.948 294.022 119.996 293.746 120.044L293.53 117.596ZM306.706 113.222C306.862 113.438 307.024 113.696 307.192 113.996C307.372 114.296 307.546 114.596 307.714 114.896C307.882 115.196 308.026 115.46 308.146 115.688L306.688 116.318C306.568 116.066 306.43 115.79 306.274 115.49C306.118 115.19 305.956 114.89 305.788 114.59C305.62 114.29 305.452 114.032 305.284 113.816L306.706 113.222ZM308.848 112.412C309.004 112.64 309.172 112.904 309.352 113.204C309.532 113.504 309.706 113.804 309.874 114.104C310.054 114.404 310.192 114.656 310.288 114.86L308.866 115.472C308.674 115.1 308.446 114.68 308.182 114.212C307.918 113.732 307.66 113.324 307.408 112.988L308.848 112.412ZM314.554 114.41C314.698 114.422 314.902 114.44 315.166 114.464C315.43 114.476 315.712 114.482 316.012 114.482C316.204 114.482 316.498 114.482 316.894 114.482C317.302 114.482 317.752 114.482 318.244 114.482C318.748 114.47 319.258 114.458 319.774 114.446C320.29 114.422 320.758 114.404 321.178 114.392C321.61 114.38 321.94 114.368 322.168 114.356C322.384 114.332 322.612 114.308 322.852 114.284C323.092 114.248 323.296 114.206 323.464 114.158L324.67 115.742C324.514 115.826 324.34 115.928 324.148 116.048C323.956 116.168 323.8 116.27 323.68 116.354C323.416 116.546 323.116 116.774 322.78 117.038C322.456 117.302 322.096 117.584 321.7 117.884C321.316 118.184 320.926 118.49 320.53 118.802C320.134 119.102 319.738 119.402 319.342 119.702C319.642 119.618 319.942 119.558 320.242 119.522C320.554 119.486 320.824 119.468 321.052 119.468C322.108 119.468 323.038 119.66 323.842 120.044C324.646 120.428 325.27 120.95 325.714 121.61C326.158 122.27 326.38 123.02 326.38 123.86C326.38 125.048 326.026 126.056 325.318 126.884C324.622 127.712 323.548 128.306 322.096 128.666C320.656 129.038 318.826 129.14 316.606 128.972L315.976 126.632C317.224 126.788 318.34 126.848 319.324 126.812C320.308 126.764 321.136 126.62 321.808 126.38C322.492 126.128 323.014 125.792 323.374 125.372C323.734 124.94 323.914 124.43 323.914 123.842C323.914 123.134 323.608 122.546 322.996 122.078C322.396 121.598 321.58 121.358 320.548 121.358C319.852 121.358 319.198 121.46 318.586 121.664C317.986 121.868 317.416 122.144 316.876 122.492C316.348 122.84 315.832 123.242 315.328 123.698C314.836 124.142 314.35 124.61 313.87 125.102L312.178 123.32C312.658 122.96 313.204 122.534 313.816 122.042C314.428 121.55 315.058 121.04 315.706 120.512C316.366 119.972 317.002 119.444 317.614 118.928C318.226 118.412 318.778 117.938 319.27 117.506C319.762 117.062 320.152 116.69 320.44 116.39C320.236 116.39 319.984 116.396 319.684 116.408C319.396 116.42 319.078 116.438 318.73 116.462C318.382 116.486 318.04 116.51 317.704 116.534C317.368 116.546 317.056 116.558 316.768 116.57C316.492 116.582 316.264 116.594 316.084 116.606C315.868 116.618 315.616 116.642 315.328 116.678C315.04 116.702 314.794 116.732 314.59 116.768L314.554 114.41ZM340.978 122.114C340.978 121.718 340.876 121.358 340.672 121.034C340.48 120.71 340.186 120.452 339.79 120.26C339.406 120.056 338.926 119.954 338.35 119.954C337.702 119.954 337.072 120.008 336.46 120.116C335.86 120.224 335.32 120.35 334.84 120.494C334.372 120.626 333.982 120.74 333.67 120.836C333.406 120.908 333.112 121.01 332.788 121.142C332.476 121.262 332.188 121.37 331.924 121.466L331.24 118.892C331.552 118.868 331.888 118.826 332.248 118.766C332.608 118.706 332.932 118.646 333.22 118.586C333.664 118.478 334.168 118.364 334.732 118.244C335.308 118.112 335.932 117.998 336.604 117.902C337.276 117.806 337.96 117.758 338.656 117.758C339.616 117.758 340.456 117.938 341.176 118.298C341.908 118.646 342.478 119.15 342.886 119.81C343.294 120.47 343.498 121.268 343.498 122.204C343.498 123.164 343.288 124.034 342.868 124.814C342.448 125.594 341.854 126.278 341.086 126.866C340.318 127.442 339.412 127.922 338.368 128.306C337.324 128.69 336.178 128.966 334.93 129.134L333.634 126.902C334.75 126.77 335.758 126.578 336.658 126.326C337.57 126.074 338.344 125.756 338.98 125.372C339.628 124.976 340.12 124.514 340.456 123.986C340.804 123.446 340.978 122.822 340.978 122.114ZM333.904 113.474C334.42 113.582 335.038 113.684 335.758 113.78C336.49 113.876 337.24 113.96 338.008 114.032C338.788 114.104 339.526 114.164 340.222 114.212C340.93 114.248 341.518 114.272 341.986 114.284L341.626 116.498C341.098 116.462 340.48 116.414 339.772 116.354C339.064 116.294 338.332 116.228 337.576 116.156C336.82 116.072 336.088 115.988 335.38 115.904C334.684 115.808 334.072 115.718 333.544 115.634L333.904 113.474ZM354.73 123.374L354.244 117.218L354.154 114.536H357.142L357.052 117.218L356.566 123.374H354.73ZM355.648 128.162C355.192 128.162 354.814 128.012 354.514 127.712C354.214 127.412 354.064 127.034 354.064 126.578C354.064 126.11 354.214 125.726 354.514 125.426C354.814 125.126 355.192 124.976 355.648 124.976C356.104 124.976 356.482 125.126 356.782 125.426C357.082 125.726 357.232 126.11 357.232 126.578C357.232 127.034 357.082 127.412 356.782 127.712C356.482 128.012 356.104 128.162 355.648 128.162Z" fill="white"/>
<defs>
<linearGradient id="paint0_linear_831_759" x1="5.59545e-06" y1="-13.5" x2="374.5" y2="167" gradientUnits="userSpaceOnUse">
<stop stop-color="#0274FF"/>
<stop offset="0.5" stop-color="#02F2FF"/>
<stop offset="1" stop-color="#FF43E0"/>
</linearGradient>
</defs>
</svg>
