<svg width="24" height="24" viewBox="0 0 24 24" fill="none" xmlns="http://www.w3.org/2000/svg">
<path d="M3.30337 6.132C3.50087 5.24358 3.99542 4.44907 4.70538 3.87965C5.41535 3.31022 6.29827 2.99993 7.20837 3H16.7904C17.7005 2.99993 18.5834 3.31022 19.2934 3.87965C20.0033 4.44907 20.4979 5.24358 20.6954 6.132L20.8424 6.794C21.6043 10.2229 21.6043 13.7771 20.8424 17.206L20.6954 17.868C20.4979 18.7564 20.0033 19.5509 19.2934 20.1204C18.5834 20.6898 17.7005 21.0001 16.7904 21H7.20937C6.29927 21.0001 5.41635 20.6898 4.70638 20.1204C3.99642 19.5509 3.50187 18.7564 3.30437 17.868L3.15737 17.206C2.39546 13.7771 2.39546 10.2229 3.15737 6.794L3.30337 6.132Z" stroke="#EAEAEA" stroke-width="2" stroke-linecap="round" stroke-linejoin="round"/>
<path d="M2.5 13H8.838C8.838 14 9.811 16 12.243 16C14.675 16 15.649 14 15.649 13H21.5" stroke="#EAEAEA" stroke-width="2" stroke-linejoin="round"/>
</svg>
