<svg width="28" height="28" viewBox="0 0 28 28" fill="none" xmlns="http://www.w3.org/2000/svg">
<path d="M14 26C16.3734 26 18.6935 25.2962 20.6668 23.9776C22.6402 22.6591 24.1783 20.7849 25.0866 18.5922C25.9948 16.3995 26.2324 13.9867 25.7694 11.6589C25.3064 9.33115 24.1635 7.19295 22.4853 5.51472C20.807 3.83649 18.6689 2.6936 16.3411 2.23058C14.0133 1.76756 11.6005 2.0052 9.4078 2.91345C7.21508 3.8217 5.34094 5.35977 4.02236 7.33316C2.70379 9.30655 2 11.6266 2 14C2 15.984 2.48 17.8547 3.33333 19.5027L2 26L8.49733 24.6667C10.1453 25.52 12.0173 26 14 26Z" stroke="#372F2C" stroke-width="2.5" stroke-linecap="round" stroke-linejoin="round"/>
</svg>
