<svg width="21" height="21" viewBox="0 0 21 21" fill="none" xmlns="http://www.w3.org/2000/svg">
<path d="M10 2H3C2.46957 2 1.96086 2.21071 1.58579 2.58579C1.21071 2.96086 1 3.46957 1 4V18C1 18.5304 1.21071 19.0391 1.58579 19.4142C1.96086 19.7893 2.46957 20 3 20H17C17.5304 20 18.0391 19.7893 18.4142 19.4142C18.7893 19.0391 19 18.5304 19 18V11" stroke="black" stroke-width="2" stroke-linecap="round" stroke-linejoin="round"/>
<path d="M16.3751 1.62498C16.7729 1.22716 17.3125 1.00366 17.8751 1.00366C18.4377 1.00366 18.9773 1.22716 19.3751 1.62498C19.7729 2.02281 19.9964 2.56237 19.9964 3.12498C19.9964 3.68759 19.7729 4.22716 19.3751 4.62498L10.3621 13.639C10.1246 13.8762 9.8313 14.0499 9.50909 14.144L6.63609 14.984C6.55005 15.0091 6.45883 15.0106 6.372 14.9883C6.28517 14.9661 6.20592 14.9209 6.14254 14.8575C6.07916 14.7942 6.03398 14.7149 6.01174 14.6281C5.98949 14.5412 5.991 14.45 6.01609 14.364L6.85609 11.491C6.95062 11.169 7.12463 10.876 7.36209 10.639L16.3751 1.62498Z" stroke="black" stroke-width="2" stroke-linecap="round" stroke-linejoin="round"/>
</svg>
