<svg width="24" height="18" viewBox="0 0 24 18" fill="none" xmlns="http://www.w3.org/2000/svg">
<path d="M14.3333 9.29199C13.468 9.29199 12.6222 9.0354 11.9027 8.55467C11.1832 8.07394 10.6225 7.39066 10.2914 6.59123C9.96023 5.79181 9.87359 4.91214 10.0424 4.06347C10.2112 3.21481 10.6279 2.43526 11.2397 1.8234C11.8516 1.21155 12.6311 0.794869 13.4798 0.626059C14.3285 0.457248 15.2081 0.543888 16.0076 0.875021C16.807 1.20615 17.4903 1.76691 17.971 2.48637C18.4517 3.20584 18.7083 4.0517 18.7083 4.91699C18.7083 6.07732 18.2474 7.19011 17.4269 8.01059C16.6065 8.83106 15.4937 9.29199 14.3333 9.29199ZM14.3333 2.29199C13.8142 2.29199 13.3066 2.44595 12.875 2.73439C12.4433 3.02282 12.1068 3.43279 11.9081 3.91245C11.7095 4.39211 11.6575 4.91991 11.7588 5.42911C11.8601 5.93831 12.1101 6.40604 12.4772 6.77315C12.8443 7.14026 13.312 7.39027 13.8212 7.49156C14.3304 7.59284 14.8582 7.54086 15.3379 7.34218C15.8175 7.1435 16.2275 6.80704 16.5159 6.37537C16.8044 5.94369 16.9583 5.43617 16.9583 4.91699C16.9583 4.2208 16.6818 3.55312 16.1895 3.06084C15.6972 2.56856 15.0295 2.29199 14.3333 2.29199ZM22.5 17.4587C22.2689 17.4556 22.0481 17.3625 21.8846 17.199C21.7212 17.0356 21.628 16.8148 21.625 16.5837C21.625 14.3087 20.3883 12.792 14.3333 12.792C8.27833 12.792 7.04167 14.3087 7.04167 16.5837C7.04167 16.8157 6.94948 17.0383 6.78539 17.2024C6.62129 17.3665 6.39873 17.4587 6.16667 17.4587C5.9346 17.4587 5.71204 17.3665 5.54795 17.2024C5.38385 17.0383 5.29167 16.8157 5.29167 16.5837C5.29167 11.042 11.6267 11.042 14.3333 11.042C17.04 11.042 23.375 11.042 23.375 16.5837C23.372 16.8148 23.2788 17.0356 23.1154 17.199C22.9519 17.3625 22.7311 17.4556 22.5 17.4587ZM7.70667 10.237H7.33333C6.40508 10.1473 5.55048 9.69246 4.95756 8.97263C4.36463 8.2528 4.08193 7.32692 4.17167 6.39866C4.2614 5.4704 4.7162 4.61581 5.43603 4.02288C6.15586 3.42995 7.08174 3.14726 8.01 3.23699C8.12902 3.24211 8.24575 3.27148 8.35302 3.32329C8.46029 3.37511 8.55585 3.44829 8.63385 3.53834C8.71184 3.6284 8.77062 3.73343 8.80659 3.847C8.84256 3.96058 8.85496 4.0803 8.84303 4.19883C8.83109 4.31736 8.79508 4.43221 8.7372 4.53634C8.67931 4.64046 8.60077 4.73167 8.50639 4.80437C8.41202 4.87707 8.30379 4.92973 8.18834 4.95913C8.07289 4.98853 7.95265 4.99404 7.835 4.97533C7.60726 4.95262 7.37727 4.97604 7.15878 5.04419C6.94029 5.11235 6.73778 5.22383 6.56333 5.37199C6.38615 5.51491 6.23919 5.69168 6.13103 5.89198C6.02286 6.09228 5.95566 6.31212 5.93333 6.53866C5.90921 6.76805 5.93097 6.99994 5.99736 7.22083C6.06375 7.44172 6.17344 7.64718 6.32002 7.82526C6.46661 8.00334 6.64717 8.15046 6.85119 8.25806C7.0552 8.36566 7.27859 8.43159 7.50833 8.45199C7.88813 8.48448 8.26835 8.39454 8.59333 8.19533C8.79136 8.07311 9.02983 8.03456 9.25628 8.08816C9.48273 8.14177 9.67861 8.28313 9.80083 8.48116C9.92305 8.67919 9.9616 8.91766 9.908 9.14411C9.85439 9.37056 9.71303 9.56644 9.515 9.68866C8.9739 10.0338 8.34832 10.2235 7.70667 10.237ZM1.5 16.5837C1.26888 16.5806 1.04807 16.4875 0.884623 16.324C0.721179 16.1606 0.628022 15.9398 0.625 15.7087C0.625 12.5587 1.465 10.4587 5.58333 10.4587C5.8154 10.4587 6.03796 10.5508 6.20205 10.7149C6.36615 10.879 6.45833 11.1016 6.45833 11.3337C6.45833 11.5657 6.36615 11.7883 6.20205 11.9524C6.03796 12.1165 5.8154 12.2087 5.58333 12.2087C2.84167 12.2087 2.375 13.0837 2.375 15.7087C2.37198 15.9398 2.27882 16.1606 2.11538 16.324C1.95193 16.4875 1.73112 16.5806 1.5 16.5837Z" fill="white"/>
</svg>
