<svg width="34" height="34" viewBox="0 0 34 34" fill="none" xmlns="http://www.w3.org/2000/svg">
<path d="M32.4762 30.0952V13.9048C32.4762 13.6091 32.4073 13.3174 32.2751 13.0529C32.1429 12.7884 31.9508 12.5584 31.7143 12.381L18.381 2.38095C18.0512 2.13367 17.6502 2 17.2381 2C16.826 2 16.4249 2.13367 16.0952 2.38095L2.7619 12.381C2.52534 12.5584 2.33333 12.7884 2.20109 13.0529C2.06885 13.3174 2 13.6091 2 13.9048V30.0952C2 30.6004 2.20068 31.0849 2.55789 31.4421C2.9151 31.7993 3.39959 32 3.90476 32H11.5238C12.029 32 12.5135 31.7993 12.8707 31.4421C13.2279 31.0849 13.4286 30.6004 13.4286 30.0952V24.381C13.4286 23.8758 13.6293 23.3913 13.9865 23.0341C14.3437 22.6769 14.8282 22.4762 15.3333 22.4762H19.1429C19.648 22.4762 20.1325 22.6769 20.4897 23.0341C20.8469 23.3913 21.0476 23.8758 21.0476 24.381V30.0952C21.0476 30.6004 21.2483 31.0849 21.6055 31.4421C21.9627 31.7993 22.4472 32 22.9524 32H30.5714C31.0766 32 31.5611 31.7993 31.9183 31.4421C32.2755 31.0849 32.4762 30.6004 32.4762 30.0952Z" stroke="#372F2C" stroke-width="2.33333" stroke-linecap="round" stroke-linejoin="round"/>
</svg>
