<svg width="24" height="24" viewBox="0 0 24 24" fill="none" xmlns="http://www.w3.org/2000/svg">
<path d="M2.66667 24C1.93333 24 1.30578 23.7391 0.784 23.2173C0.262222 22.6956 0.000888889 22.0676 0 21.3333V2.66667C0 1.93333 0.261333 1.30578 0.784 0.784C1.30667 0.262222 1.93422 0.000888889 2.66667 0H21.3333C22.0667 0 22.6947 0.261333 23.2173 0.784C23.74 1.30667 24.0009 1.93422 24 2.66667V21.3333C24 22.0667 23.7391 22.6947 23.2173 23.2173C22.6956 23.74 22.0676 24.0009 21.3333 24H2.66667ZM2.66667 21.3333H21.3333V17.3333H17.3333C16.6667 18.1778 15.8724 18.8333 14.9507 19.3C14.0289 19.7667 13.0453 20 12 20C10.9547 20 9.97155 19.7667 9.05067 19.3C8.12978 18.8333 7.33511 18.1778 6.66667 17.3333H2.66667V21.3333ZM12 17.3333C12.8444 17.3333 13.6111 17.0889 14.3 16.6C14.9889 16.1111 15.4667 15.4667 15.7333 14.6667H21.3333V2.66667H2.66667V14.6667H8.26667C8.53333 15.4667 9.01111 16.1111 9.7 16.6C10.3889 17.0889 11.1556 17.3333 12 17.3333Z" fill="#372F2C"/>
</svg>
