<svg width="23" height="24" viewBox="0 0 23 24" fill="none" xmlns="http://www.w3.org/2000/svg">
<path d="M1.66663 19.5C1.66663 18.1739 2.19341 16.9021 3.13109 15.9645C4.06877 15.0268 5.34054 14.5 6.66663 14.5H16.6666C17.9927 14.5 19.2645 15.0268 20.2022 15.9645C21.1398 16.9021 21.6666 18.1739 21.6666 19.5C21.6666 20.163 21.4032 20.7989 20.9344 21.2678C20.4655 21.7366 19.8297 22 19.1666 22H4.16663C3.50358 22 2.8677 21.7366 2.39886 21.2678C1.93002 20.7989 1.66663 20.163 1.66663 19.5Z" stroke="#372F2C" stroke-width="2.33333" stroke-linejoin="round"/>
<path d="M11.6666 9.5C13.7377 9.5 15.4166 7.82107 15.4166 5.75C15.4166 3.67893 13.7377 2 11.6666 2C9.59556 2 7.91663 3.67893 7.91663 5.75C7.91663 7.82107 9.59556 9.5 11.6666 9.5Z" stroke="#372F2C" stroke-width="2.33333"/>
</svg>
