<svg width="28" height="28" viewBox="0 0 28 28" fill="none" xmlns="http://www.w3.org/2000/svg">
<path d="M26 14C26 7.3724 20.6276 2 14 2C7.3724 2 2 7.3724 2 14C2 20.6276 7.3724 26 14 26" stroke="#372F2C" stroke-width="2.5" stroke-linecap="round" stroke-linejoin="round"/>
<path d="M23.6 6.4388C22.478 6.5192 21.0416 6.9548 20.0456 8.2436C18.2456 10.5716 16.4468 10.7672 15.2468 9.9908C13.4468 8.8268 14.96 6.9392 12.848 5.9144C11.4716 5.246 11.2796 3.428 12.0464 2M2 12.8C2.9156 13.5944 4.196 14.3216 5.7068 14.3216C8.8268 14.3216 9.4508 14.918 9.4508 17.3024C9.4508 19.6868 9.4508 19.6868 10.0748 21.4748C10.4804 22.6388 10.622 23.8004 9.8132 24.8M23.4788 23.5148L26 26M24.9296 20.0552C24.929 20.6934 24.8026 21.3253 24.5578 21.9147C24.313 22.5041 23.9545 23.0395 23.5027 23.4903C23.051 23.9412 22.5149 24.2986 21.925 24.5423C21.3351 24.7859 20.703 24.911 20.0648 24.9104C19.4266 24.911 18.7945 24.7859 18.2046 24.5423C17.6147 24.2986 17.0786 23.9412 16.6269 23.4903C16.1751 23.0395 15.8166 22.5041 15.5718 21.9147C15.327 21.3253 15.2006 20.6934 15.2 20.0552C15.2006 19.417 15.327 18.7851 15.5718 18.1957C15.8166 17.6063 16.1751 17.0709 16.6269 16.6201C17.0786 16.1692 17.6147 15.8118 18.2046 15.5681C18.7945 15.3245 19.4266 15.1994 20.0648 15.2C20.703 15.1994 21.3351 15.3245 21.925 15.5681C22.5149 15.8118 23.051 16.1692 23.5027 16.6201C23.9545 17.0709 24.313 17.6063 24.5578 18.1957C24.8026 18.7851 24.929 19.417 24.9296 20.0552Z" stroke="#372F2C" stroke-width="2.5" stroke-linecap="round" stroke-linejoin="round"/>
</svg>
