<svg width="28" height="28" viewBox="0 0 28 28" fill="none" xmlns="http://www.w3.org/2000/svg">
<path d="M11.667 16.3333L24.5003 3.5M11.667 16.3333L15.7503 24.5C15.8015 24.6117 15.8837 24.7064 15.9871 24.7727C16.0905 24.8391 16.2108 24.8743 16.3337 24.8743C16.4565 24.8743 16.5768 24.8391 16.6802 24.7727C16.7836 24.7064 16.8658 24.6117 16.917 24.5L24.5003 3.5M11.667 16.3333L3.50033 12.25C3.38863 12.1988 3.29397 12.1166 3.22761 12.0132C3.16125 11.9098 3.12598 11.7895 3.12598 11.6667C3.12598 11.5438 3.16125 11.4235 3.22761 11.3201C3.29397 11.2167 3.38863 11.1345 3.50033 11.0833L24.5003 3.5" stroke="#372F2C" stroke-width="2.33333" stroke-linecap="round" stroke-linejoin="round"/>
</svg>
